{"scene":0,"asset":{"generator":"ImageToStl.com","version":"2.0"},"scenes":[{"name":"Scene","nodes":[0]}],"nodes":[{"name":"Node0","children":[1]},{"name":"Node1","mesh":0}],"materials":[{"name":"Plastic4.001","pbrMetallicRoughness":{"baseColorFactor":[0.8,0.8,0.8,1.0],"metallicFactor":1.0,"roughnessFactor":0.4},"emissiveFactor":[0.0,0.0,0.0],"doubleSided":true},{"name":"Plastic3","pbrMetallicRoughness":{"baseColorFactor":[0.8,0.8,0.8,1.0],"metallicFactor":1.0,"roughnessFactor":0.4},"emissiveFactor":[0.0,0.0,0.0],"doubleSided":true},{"name":"Buttons.002","pbrMetallicRoughness":{"baseColorFactor":[0.8,0.8,0.8,1.0],"metallicFactor":1.0,"roughnessFactor":0.4},"emissiveFactor":[0.0,0.0,0.0],"doubleSided":true},{"name":"Detail.002","pbrMetallicRoughness":{"baseColorFactor":[0.8,0.8,0.8,1.0],"metallicFactor":1.0,"roughnessFactor":0.4},"emissiveFactor":[0.0,0.0,0.0],"doubleSided":true},{"name":"Glass_IR","pbrMetallicRoughness":{"baseColorFactor":[0.729412,0.729412,0.729412,0.497564],"metallicFactor":1.0,"roughnessFactor":0.4},"emissiveFactor":[0.0,0.0,0.0],"alphaMode":"BLEND","doubleSided":true}],"meshes":[{"name":"Mesh0","primitives":[{"indices":3,"material":0,"attributes":{"POSITION":0,"NORMAL":1,"TEXCOORD_0":2}},{"indices":4,"material":1,"attributes":{"POSITION":0,"NORMAL":1,"TEXCOORD_0":2}},{"indices":5,"material":2,"attributes":{"POSITION":0,"NORMAL":1,"TEXCOORD_0":2}},{"indices":6,"material":3,"attributes":{"POSITION":0,"NORMAL":1,"TEXCOORD_0":2}},{"indices":7,"material":4,"attributes":{"POSITION":0,"NORMAL":1,"TEXCOORD_0":2}}]}],"accessors":[{"bufferView":0,"componentType":5126,"count":13479,"type":"VEC3","min":[-0.03243445,-0.1120844,-1.780374E-08],"max":[0.032371227,0.110082574,0.019299775]},{"bufferView":1,"componentType":5126,"count":13479,"type":"VEC3"},{"bufferView":2,"componentType":5126,"count":13479,"type":"VEC2"},{"bufferView":3,"componentType":5123,"count":6336,"type":"SCALAR"},{"bufferView":4,"componentType":5123,"count":21744,"type":"SCALAR"},{"bufferView":5,"componentType":5123,"count":160488,"type":"SCALAR"},{"bufferView":6,"componentType":5123,"count":2160,"type":"SCALAR"},{"bufferView":7,"componentType":5123,"count":4032,"type":"SCALAR"}],"bufferViews":[{"target":34962,"buffer":0,"byteLength":161748,"byteOffset":0},{"target":34962,"buffer":0,"byteLength":161748,"byteOffset":161748},{"target":34962,"buffer":0,"byteLength":107832,"byteOffset":323496},{"target":34963,"buffer":0,"byteLength":12672,"byteOffset":431328},{"target":34963,"buffer":0,"byteLength":43488,"byteOffset":444000},{"target":34963,"buffer":0,"byteLength":320976,"byteOffset":487488},{"target":34963,"buffer":0,"byteLength":4320,"byteOffset":808464},{"target":34963,"buffer":0,"byteLength":8064,"byteOffset":812784}],"buffers":[{"byteLength":820848,"uri":"data:application/octet-stream;base64,"}]}
